<?xml version="1.0" encoding="UTF-8"?>
<svg id="Layer_1" xmlns="http://www.w3.org/2000/svg" version="1.1" viewBox="0 0 800 800">
  <!-- Generator: Adobe Illustrator 29.6.1, SVG Export Plug-In . SVG Version: 2.1.1 Build 9)  -->
  <defs>
    <style>
      .st0 {
        fill: #172b3d;
      }

      .st1 {
        fill: #fff;
      }
    </style>
  </defs>
  <path class="st0" d="M682.1,324.2l47.1-95.3c3-5.9,2.7-13.1-.6-18.8-3.3-5.8-9.3-9.5-16-9.9l-106.1-6.9-6.9-106.1c-.4-6.7-4.2-12.7-9.9-16-5.8-3.4-12.9-3.6-18.8-.6l-95.2,47.1-59-88.4c-7.4-11.1-25.8-11.1-33.2,0l-59,88.4-95.2-47.1c-6-3-13.1-2.8-18.8.6-5.8,3.3-9.5,9.3-9.9,16l-6.8,106.1-106.1,6.8c-6.7.4-12.7,4.2-16,9.9-3.4,5.8-3.6,12.9-.6,18.8l47.1,95.3-88.4,59c-5.6,3.7-8.9,9.9-8.9,16.6s3.3,12.9,8.9,16.6l88.4,59-47.1,95.3c-3,6-2.7,13.1.6,18.8,3.3,5.7,9.3,9.5,16,9.9l106.1,6.8,6.8,106.1c.4,6.7,4.2,12.7,9.9,16,5.7,3.3,12.8,3.5,18.8.6l95.3-47.1,59,88.4c3.7,5.6,9.9,8.9,16.6,8.9s12.9-3.3,16.6-8.9l59-88.4,95.3,47.1c6,2.9,13.1,2.7,18.8-.6s9.5-9.3,9.9-16l6.8-106.1,106.1-6.9c6.7-.4,12.7-4.2,16-9.9,3.3-5.8,3.6-12.9.6-18.8l-47.1-95.2,88.4-59c5.6-3.7,8.9-9.9,8.9-16.6s-3.3-12.9-8.9-16.6l-88.4-58.9h0Z"/>
  <g id="SVGRepo_iconCarrier">
    <path class="st1" d="M400,184.4c-4.3,0-7.8,3.5-7.8,7.8v23.9c-27,3-49.4,21.4-58.2,46.3h132c-8.8-24.8-31.2-43.3-58.2-46.3v-23.9c0-4.3-3.5-7.8-7.8-7.8ZM329.9,277.7c-4.5,0-8,3.6-8,8s3.6,8,8,8v66l15.6-6.3v-59.7h15.6v53.6l15.6-5.6v-48h15.6v41.9l7.8-3.2,7.8,3.2v-41.9h15.6v48l15.6,5.6v-53.6h15.6v59.7l15.6,6.3v-66c4.5,0,8-3.6,8-8s-3.6-8-8-8h-140.3ZM400,348c-.9,0-1.8.2-2.7.5l-148.1,57c-3,1.2-5.1,4.1-5.1,7.3v28.7c0,4.3,3.5,7.8,7.8,7.8h296.1c4.3,0,7.8-3.5,7.8-7.8v-28.7c0-3.2-2.1-6.1-5.1-7.3l-148.1-57c-.9-.3-1.7-.5-2.7-.5ZM259.7,464.9v101.3c0,4.3,3.5,7.8,7.8,7.8h88.2c4.3,0,7.8-3.5,7.8-7.8v-42.1c0-18.2,12-33.7,28.7-36.8,11-2.1,22.2.6,30.7,7.5,8.3,6.8,12.9,17,12.9,27.8v43.6c0,4.3,3.5,7.8,7.8,7.8h88.9c4.3,0,7.8-3.5,7.8-7.8v-101.3h-280.5Z"/>
  </g>
</svg>